<?xml version="1.0" encoding="utf-8"?>
<!-- Generator: Adobe Illustrator 27.3.1, SVG Export Plug-In . SVG Version: 6.00 Build 0)  -->
<svg version="1.0" id="Layer_1" xmlns="http://www.w3.org/2000/svg" xmlns:xlink="http://www.w3.org/1999/xlink" x="0px" y="0px"
	 viewBox="0 0 370 82.67" style="enable-background:new 0 0 370 82.67;" xml:space="preserve">
<style type="text/css">
	.st0{fill:#202545;}
	.st1{fill:url(#SVGID_1_);}
	.st2{fill:url(#SVGID_00000090276847364318651470000014540125427495725204_);}
	.st3{fill:#096260;}
	.st4{fill:url(#SVGID_00000176038902599884542340000016742860100159898535_);}
	.st5{fill:url(#SVGID_00000021836471245343620800000003289165993312231346_);}
	
		.st6{fill:#FFFFFF;stroke:url(#SVGID_00000049920765056909787750000004923645985967583919_);stroke-width:0.25;stroke-miterlimit:10;}
	.st7{fill:#FFFFFF;}
	.st8{fill:url(#SVGID_00000122694243236255319650000004861769063342526369_);}
</style>
<g>
	<path class="st0" d="M121.76,25.47c0.55,0,0.81,0.26,0.81,0.81v3.51c0,0.55-0.26,0.81-0.81,0.81h-18.52c-1.4,0-1.96,0.78-1.96,2.07
		v1.26c0,1.37,0.63,2.07,1.92,2.07h13.86c4.25,0,6.47,2.29,6.47,6.36v2.96c0,3.59-2.07,6.03-6.54,6.03H96.51
		c-0.55,0-0.85-0.26-0.85-0.81v-3.51c0-0.55,0.3-0.81,0.85-0.81h19.41c1.4,0,1.96-0.78,1.96-2.07v-1.52c0-1.37-0.63-2.07-1.92-2.07
		h-13.86c-4.25,0-6.47-2.29-6.47-6.36v-2.7c0-3.59,2.07-6.03,6.54-6.03H121.76z"/>
	<path class="st0" d="M146.57,31.06c6.66,0,8.8,2.14,8.8,7.51v5.32c0,5.36-2.14,7.47-8.8,7.47h-10.46c-6.66,0-8.8-2.11-8.8-7.47
		v-5.32c0-5.36,2.14-7.51,8.8-7.51H146.57z M132.59,42.96c0,3.11,0.85,4.07,4.03,4.07h9.43c3.22,0,4.07-0.96,4.07-4.07v-3.51
		c0-3.11-0.85-4.03-4.07-4.03h-9.43c-3.18,0-4.03,0.92-4.03,4.03V42.96z"/>
	<path class="st0" d="M164.09,23.62c0.55,0,0.81,0.26,0.81,0.81v6.62h13.86c6.66,0,8.8,2.14,8.8,7.51v5.32
		c0,5.36-2.14,7.47-8.8,7.47h-10.35c-6.66,0-8.8-2.11-8.8-7.47V24.44c0-0.55,0.3-0.81,0.85-0.81H164.09z M164.91,35.49v7.36
		c0,3.11,0.85,4.07,4.03,4.07h9.32c3.22,0,4.07-0.96,4.07-4.07v-3.29c0-3.11-0.85-4.07-4.07-4.07H164.91z"/>
	<path class="st0" d="M213.01,25.47c5.66,0,7.95,2.63,7.95,7.62v2.11c0,4.21-1.63,6.69-5.51,7.39l6.32,7.84
		c0.22,0.26,0.18,0.92-0.48,0.92h-4.77c-0.63,0-0.81-0.15-1.04-0.48l-5.84-7.69H197.7v7.36c0,0.55-0.26,0.81-0.81,0.81h-3.99
		c-0.55,0-0.85-0.26-0.85-0.81V26.58c0-0.74,0.37-1.11,1.11-1.11H213.01z M197.7,38.67h14.16c2.51,0,3.44-1.07,3.44-3.29v-1.55
		c0-2.22-0.92-3.29-3.44-3.29h-13.68c-0.33,0-0.48,0.15-0.48,0.44V38.67z"/>
	<path class="st0" d="M243.18,31.06c6.66,0,8.8,2.14,8.8,7.51v5.32c0,5.36-2.14,7.47-8.8,7.47h-10.46c-6.66,0-8.8-2.11-8.8-7.47
		v-5.32c0-5.36,2.14-7.51,8.8-7.51H243.18z M229.2,42.96c0,3.11,0.85,4.07,4.03,4.07h9.43c3.22,0,4.07-0.96,4.07-4.07v-3.51
		c0-3.11-0.85-4.03-4.07-4.03h-9.43c-3.18,0-4.03,0.92-4.03,4.03V42.96z"/>
	<path class="st0" d="M260.78,23.62c0.55,0,0.81,0.26,0.81,0.81v14.64h6.8c2.11,0,2.7-0.18,3.66-1.55l4.14-5.84
		c0.3-0.44,0.55-0.63,1.11-0.63h4.18c0.55,0,0.7,0.52,0.37,1l-4.77,6.54c-0.74,1-1.48,1.77-2.29,2.37c1.04,0.59,1.89,1.37,2.63,2.37
		l5.25,7.1c0.3,0.41,0.11,0.92-0.44,0.92h-4.14c-0.63,0-0.85-0.11-1.15-0.52l-4.51-6.21c-0.89-1.18-1.66-1.55-3.7-1.55h-7.14v7.47
		c0,0.55-0.26,0.81-0.81,0.81h-3.62c-0.55,0-0.85-0.26-0.85-0.81v-26.1c0-0.55,0.3-0.81,0.85-0.81H260.78z"/>
	<path class="st0" d="M303.89,31.06c6.66,0,8.8,2.14,8.8,7.51v5.32c0,5.36-2.14,7.47-8.8,7.47h-10.46c-6.66,0-8.8-2.11-8.8-7.47
		v-5.32c0-5.36,2.14-7.51,8.8-7.51H303.89z M289.91,42.96c0,3.11,0.85,4.07,4.03,4.07h9.43c3.22,0,4.07-0.96,4.07-4.07v-3.51
		c0-3.11-0.85-4.03-4.07-4.03h-9.43c-3.18,0-4.03,0.92-4.03,4.03V42.96z"/>
	<path class="st0" d="M344.63,31.06c6.66,0,8.76,2.14,8.76,7.51v11.98c0,0.55-0.26,0.81-0.81,0.81h-3.62
		c-0.55,0-0.81-0.26-0.81-0.81V39.82c0-3.11-0.59-4.07-3.81-4.07h-6.51v14.79c0,0.55-0.3,0.81-0.85,0.81h-3.62
		c-0.55,0-0.81-0.26-0.81-0.81V35.75h-6.29c-3.18,0-4.03,0.96-4.03,4.07v10.72c0,0.55-0.26,0.81-0.81,0.81h-3.62
		c-0.55,0-0.85-0.26-0.85-0.81V38.56c0-5.36,2.14-7.51,8.8-7.51H344.63z"/>
</g>
<g>
	<path class="st0" d="M179,59.55c0.2,0,0.3,0.09,0.3,0.3v5.39c0,1.43,0.41,1.85,1.8,1.85h5.48c0.2,0,0.3,0.09,0.3,0.3v1.32
		c0,0.2-0.09,0.3-0.3,0.3h-5.56c-2.73,0-3.79-0.97-3.79-3.57v-5.6c0-0.2,0.11-0.3,0.31-0.3H179z"/>
	<path class="st0" d="M195.19,61.59c1.85,0,2.34,0.58,2.34,2.22v1.28c0,0.58-0.24,0.77-0.77,0.77h-6.83v0.32
		c0,0.85,0.31,1.2,1.49,1.2h5.64c0.16,0,0.24,0.08,0.24,0.24v1.14c0,0.16-0.08,0.24-0.24,0.24h-5.83c-2.43,0-3.22-0.77-3.22-2.73
		v-1.95c0-1.96,0.78-2.74,3.22-2.74H195.19z M189.93,64.66h5.48c0.16,0,0.23-0.05,0.23-0.23v-0.57c0-0.55-0.2-0.77-0.82-0.77h-3.39
		c-1.18,0-1.49,0.34-1.49,1.2V64.66z"/>
	<path class="st0" d="M200.29,61.59V59.8c0-0.2,0.11-0.3,0.3-0.3h1.34c0.19,0,0.3,0.09,0.3,0.3v1.78h2.37
		c0.18,0,0.24,0.08,0.24,0.24v1.11c0,0.16-0.07,0.24-0.24,0.24h-2.37v3.14c0,0.74,0.24,1.1,1.14,1.1h1.31
		c0.18,0,0.24,0.08,0.24,0.24v1.11c0,0.16-0.07,0.24-0.24,0.24h-1.64c-2.16,0-2.74-0.77-2.74-2.69v-3.14H199
		c-0.16,0-0.24-0.08-0.24-0.24v-1.11c0-0.16,0.08-0.24,0.24-0.24H200.29z"/>
	<path class="st0" d="M208.11,58.87c0.19,0,0.28,0.12,0.26,0.37l-0.31,3.57c-0.01,0.22-0.11,0.28-0.3,0.28h-0.74
		c-0.19,0-0.28-0.07-0.3-0.28l-0.31-3.57c-0.03-0.24,0.07-0.37,0.26-0.37H208.11z"/>
	<path class="st0" d="M218.55,61.59c0.16,0,0.24,0.08,0.24,0.24v1.08c0,0.16-0.08,0.24-0.24,0.24h-6.1c-0.55,0-0.74,0.22-0.74,0.61
		v0.2c0,0.36,0.19,0.58,0.74,0.58h4.56c1.51,0,2.11,0.65,2.11,1.81v0.76c0,1.19-0.53,1.89-2.12,1.89h-6.92
		c-0.16,0-0.24-0.08-0.24-0.24v-1.08c0-0.16,0.08-0.24,0.24-0.24h6.41c0.55,0,0.76-0.19,0.76-0.65v-0.36c0-0.35-0.2-0.57-0.76-0.57
		h-4.54c-1.51,0-2.11-0.64-2.11-1.83v-0.59c0-1.12,0.53-1.85,2.12-1.85H218.55z"/>
	<path class="st0" d="M234.47,61.59c0.16,0,0.24,0.08,0.24,0.24v1.08c0,0.16-0.08,0.24-0.24,0.24h-6.1c-0.55,0-0.74,0.22-0.74,0.61
		v0.2c0,0.36,0.19,0.58,0.74,0.58h4.56c1.51,0,2.11,0.65,2.11,1.81v0.76c0,1.19-0.53,1.89-2.12,1.89h-6.92
		c-0.16,0-0.24-0.08-0.24-0.24v-1.08c0-0.16,0.08-0.24,0.24-0.24h6.41c0.55,0,0.76-0.19,0.76-0.65v-0.36c0-0.35-0.2-0.57-0.76-0.57
		h-4.54c-1.51,0-2.11-0.64-2.11-1.83v-0.59c0-1.12,0.53-1.85,2.12-1.85H234.47z"/>
	<path class="st0" d="M238.54,58.87c0.2,0,0.3,0.09,0.3,0.3v2.42h5.06c2.43,0,3.22,0.78,3.22,2.74v4.38c0,0.2-0.09,0.3-0.3,0.3
		h-1.32c-0.2,0-0.3-0.09-0.3-0.3v-3.92c0-1.14-0.23-1.49-1.39-1.49h-4.96v5.41c0,0.2-0.09,0.3-0.3,0.3h-1.33
		c-0.2,0-0.3-0.09-0.3-0.3v-9.54c0-0.2,0.09-0.3,0.3-0.3H238.54z"/>
	<path class="st0" d="M256.11,61.59c2.43,0,3.22,0.78,3.22,2.74v1.95c0,1.96-0.78,2.73-3.22,2.73h-3.83c-2.43,0-3.22-0.77-3.22-2.73
		v-1.95c0-1.96,0.78-2.74,3.22-2.74H256.11z M251,65.94c0,1.14,0.31,1.49,1.47,1.49h3.45c1.18,0,1.49-0.35,1.49-1.49v-1.28
		c0-1.14-0.31-1.47-1.49-1.47h-3.45c-1.16,0-1.47,0.34-1.47,1.47V65.94z"/>
	<path class="st0" d="M268.29,61.59c2.43,0,3.22,0.78,3.22,2.74v1.95c0,1.96-0.78,2.73-3.22,2.73h-5.07v2.69c0,0.2-0.09,0.3-0.3,0.3
		h-1.32c-0.2,0-0.31-0.09-0.31-0.3v-7.37c0-1.96,0.78-2.74,3.22-2.74H268.29z M263.22,67.39h4.88c1.18,0,1.49-0.34,1.49-1.49v-1.2
		c0-1.14-0.31-1.49-1.49-1.49h-3.41c-1.16,0-1.47,0.35-1.47,1.49V67.39z"/>
</g>
<linearGradient id="SVGID_1_" gradientUnits="userSpaceOnUse" x1="77.7504" y1="82.9896" x2="168.1374" y2="54.3978">
	<stop  offset="0" style="stop-color:#AC4CBA"/>
	<stop  offset="1" style="stop-color:#DC3D8D"/>
</linearGradient>
<rect x="95.64" y="64.41" class="st1" width="77.31" height="1.38"/>
<linearGradient id="SVGID_00000099657217885256508070000012083550220287901872_" gradientUnits="userSpaceOnUse" x1="276.9459" y1="73.5" x2="340.3551" y2="58.9735">
	<stop  offset="0" style="stop-color:#AC4CBA"/>
	<stop  offset="1" style="stop-color:#DC3D8D"/>
</linearGradient>
<rect x="273.82" y="64.41" style="fill:url(#SVGID_00000099657217885256508070000012083550220287901872_);" width="79.56" height="1.38"/>
<g>
	<path class="st3" d="M75.65,50.07c-0.83,0.51-1.72,0.94-2.67,1.29c-1.83,0.67-3.71,0.95-5.65,0.85c-2.69-0.13-5.28-0.75-7.8-1.64
		c-1.48-0.52-2.93-1.09-4.4-1.64c-0.08-0.03-0.17-0.06-0.25-0.11c-0.2-0.11-0.27-0.27-0.21-0.5c0.08-0.3,0.28-0.38,0.69-0.29
		c1.1,0.25,2.21,0.5,3.31,0.76c2.49,0.57,4.99,1.08,7.57,1.04c2.17-0.03,4.26-0.38,6.2-1.44c1.05-0.57,1.99-1.26,2.8-2.07
		L75.65,50.07z"/>
	
		<linearGradient id="SVGID_00000155850046547522397820000016551298286525896078_" gradientUnits="userSpaceOnUse" x1="26.3735" y1="12.1898" x2="57.9478" y2="56.2762">
		<stop  offset="0.0793" style="stop-color:#FF6CAB"/>
		<stop  offset="0.9399" style="stop-color:#7366FF"/>
	</linearGradient>
	<path style="fill:url(#SVGID_00000155850046547522397820000016551298286525896078_);" d="M72.61,22.41
		c-1.96-0.75-4.06-1.1-6.27-1.07c-2.83,0.04-5.43,0.83-7.84,2.29c-1.75,1.06-3.18,2.47-4.39,4.1c-1.27,1.72-2.24,3.59-3.05,5.57
		c-0.87,2.15-1.54,4.37-2.22,6.59c-1.23,4.03-2.45,8.07-3.69,12.1c-0.54,1.76-1.06,3.53-1.65,5.28c-0.63,1.88-1.47,3.68-2.62,5.31
		c-0.76,1.08-1.66,2.04-2.75,2.79c-1.26,0.87-2.68,1.4-4.18,1.65c-3.77,0.63-7.04-0.45-9.75-3.07c-0.36-0.35-0.7-0.71-1-1.08
		L25,46.46c0.26-0.21,0.52-0.42,0.8-0.61c1.64-1.17,3.49-1.78,5.48-1.99c2.47-0.26,4.9-0.04,7.31,0.49
		c1.76,0.39,3.51,0.79,5.26,1.18c0.12,0.03,0.24,0.05,0.36,0.06c0.25,0.02,0.4-0.08,0.46-0.31c0.07-0.25,0.01-0.41-0.24-0.51
		c-0.62-0.25-1.24-0.48-1.86-0.72c-1.84-0.72-3.69-1.38-5.6-1.89c-2.26-0.6-4.55-0.86-6.89-0.72c-1.63,0.1-3.19,0.49-4.66,1.15
		l2.14-19.64c0.3-2.75,2.63-4.84,5.39-4.84H67.3C69.89,18.12,72.08,19.94,72.61,22.41z"/>
	<path class="st3" d="M25.8,45.85c-0.28,0.2-0.54,0.4-0.8,0.61l0.42-3.87c1.48-0.67,3.03-1.05,4.66-1.15
		c2.33-0.15,4.63,0.12,6.89,0.72c1.91,0.51,3.76,1.17,5.6,1.89c0.62,0.24,1.24,0.47,1.86,0.72c0.25,0.1,0.3,0.26,0.24,0.51
		c-0.06,0.22-0.21,0.33-0.46,0.31c-0.12-0.01-0.24-0.03-0.36-0.06c-1.75-0.39-3.51-0.79-5.26-1.18c-2.41-0.53-4.85-0.75-7.31-0.49
		C29.28,44.07,27.43,44.68,25.8,45.85z"/>
	
		<linearGradient id="SVGID_00000049943813680097230350000013202411633233130932_" gradientUnits="userSpaceOnUse" x1="34.5811" y1="32.2118" x2="68.6636" y2="76.194">
		<stop  offset="0.3109" style="stop-color:#DC3D8D"/>
		<stop  offset="0.6269" style="stop-color:#C445A4"/>
		<stop  offset="0.9923" style="stop-color:#AC4CBA"/>
	</linearGradient>
	<path style="fill:url(#SVGID_00000049943813680097230350000013202411633233130932_);" d="M72.23,74.31H28.02
		c-3.06,0-5.48-2.51-5.43-5.5c0.45,0.35,0.91,0.68,1.4,0.98c2.5,1.57,5.23,2.37,8.17,2.46c2.18,0.07,4.28-0.32,6.31-1.12
		c3.08-1.2,5.41-3.28,7.22-5.99c1.43-2.14,2.53-4.45,3.34-6.89c0.65-1.96,1.26-3.93,1.86-5.9c1.31-4.29,2.59-8.58,3.9-12.87
		c0.59-1.95,1.21-3.9,2.08-5.75c0.85-1.81,1.89-3.49,3.44-4.81c1.94-1.65,4.19-2.45,6.72-2.5c1.83-0.04,3.58,0.33,5.22,1.13
		c0.36,0.17,0.7,0.36,1.03,0.56l1.98,18.22c-0.81,0.81-1.74,1.5-2.8,2.07c-1.94,1.06-4.03,1.4-6.2,1.44
		c-2.58,0.04-5.08-0.48-7.57-1.04c-1.11-0.25-2.21-0.5-3.31-0.76c-0.41-0.09-0.61-0.01-0.69,0.29c-0.06,0.22,0.01,0.38,0.21,0.5
		c0.08,0.04,0.17,0.08,0.25,0.11c1.46,0.55,2.92,1.12,4.4,1.64c2.53,0.89,5.11,1.5,7.8,1.64c1.94,0.09,3.82-0.19,5.65-0.85
		c0.95-0.35,1.84-0.77,2.67-1.29l1.98,18.24C77.98,71.51,75.46,74.31,72.23,74.31z"/>
	<path class="st3" d="M54.78,39.48c-1.3,4.29-2.59,8.58-3.9,12.87c-0.6,1.97-1.21,3.94-1.86,5.9c-0.81,2.44-1.9,4.75-3.34,6.89
		c-1.81,2.71-4.15,4.79-7.22,5.99c-2.03,0.79-4.13,1.19-6.31,1.12c-2.94-0.09-5.67-0.9-8.17-2.46c-0.49-0.31-0.95-0.63-1.4-0.98
		c0-0.17,0.01-0.33,0.03-0.5l0.59-5.42c0.31,0.37,0.64,0.73,1,1.08c2.71,2.62,5.98,3.7,9.75,3.07c1.51-0.25,2.92-0.78,4.18-1.65
		c1.09-0.75,1.99-1.71,2.75-2.79c1.15-1.63,1.99-3.42,2.62-5.31c0.59-1.75,1.11-3.52,1.65-5.28c1.23-4.03,2.45-8.07,3.69-12.1
		c0.68-2.22,1.34-4.44,2.22-6.59c0.8-1.98,1.78-3.85,3.05-5.57c1.21-1.64,2.64-3.04,4.39-4.1c2.41-1.46,5.01-2.25,7.84-2.29
		c2.21-0.03,4.31,0.31,6.27,1.07c0.04,0.18,0.07,0.36,0.09,0.54l0.56,5.16c-0.33-0.2-0.67-0.39-1.03-0.56
		c-1.64-0.8-3.4-1.17-5.22-1.13c-2.53,0.05-4.78,0.85-6.72,2.5c-1.55,1.32-2.59,3-3.44,4.81C55.98,35.58,55.37,37.53,54.78,39.48z"
		/>
	
		<linearGradient id="SVGID_00000089552320676824819870000000003824847250988475_" gradientUnits="userSpaceOnUse" x1="16.4807" y1="46.8028" x2="82.8527" y2="46.8028">
		<stop  offset="0" style="stop-color:#F35FFF"/>
		<stop  offset="1" style="stop-color:#8F43B5"/>
	</linearGradient>
	
		<path style="fill:#FFFFFF;stroke:url(#SVGID_00000089552320676824819870000000003824847250988475_);stroke-width:0.25;stroke-miterlimit:10;" d="
		M82.73,37.08c-0.02,3.71-1.25,7.01-3.57,9.89c-1.01,1.26-2.19,2.29-3.51,3.11c-0.83,0.51-1.72,0.94-2.67,1.29
		c-1.83,0.67-3.71,0.95-5.65,0.85c-2.69-0.13-5.28-0.75-7.8-1.64c-1.48-0.52-2.93-1.09-4.4-1.64c-0.08-0.03-0.17-0.06-0.25-0.11
		c-0.2-0.11-0.27-0.27-0.21-0.5c0.08-0.3,0.28-0.38,0.69-0.29c1.1,0.25,2.21,0.5,3.31,0.76c2.49,0.57,4.99,1.08,7.57,1.04
		c2.17-0.03,4.26-0.38,6.2-1.44c1.05-0.57,1.99-1.26,2.8-2.07c0.84-0.84,1.54-1.82,2.07-2.93c2.05-4.29,1.84-8.46-0.95-12.4
		c-0.84-1.18-1.89-2.14-3.1-2.88c-0.33-0.2-0.67-0.39-1.03-0.56c-1.64-0.8-3.4-1.17-5.22-1.13c-2.53,0.05-4.78,0.85-6.72,2.5
		c-1.55,1.32-2.59,3-3.44,4.81c-0.87,1.85-1.48,3.8-2.08,5.75c-1.3,4.29-2.59,8.58-3.9,12.87c-0.6,1.97-1.21,3.94-1.86,5.9
		c-0.81,2.44-1.9,4.75-3.34,6.89c-1.81,2.71-4.15,4.79-7.22,5.99c-2.03,0.79-4.13,1.19-6.31,1.12c-2.94-0.09-5.67-0.9-8.17-2.46
		c-0.49-0.31-0.95-0.63-1.4-0.98c-1.47-1.15-2.71-2.54-3.7-4.16c-0.67-1.09-1.18-2.26-1.57-3.48c-0.55-1.73-0.78-3.51-0.69-5.31
		c0.09-1.75,0.44-3.45,1.11-5.09c1.38-3.38,3.62-5.98,6.81-7.75c0.29-0.15,0.58-0.3,0.87-0.43c1.48-0.67,3.03-1.05,4.66-1.15
		c2.33-0.15,4.63,0.12,6.89,0.72c1.91,0.51,3.76,1.17,5.6,1.89c0.62,0.24,1.24,0.47,1.86,0.72c0.25,0.1,0.3,0.26,0.24,0.51
		c-0.06,0.22-0.21,0.33-0.46,0.31c-0.12-0.01-0.24-0.03-0.36-0.06c-1.75-0.39-3.51-0.79-5.26-1.18c-2.41-0.53-4.85-0.75-7.31-0.49
		c-1.99,0.21-3.84,0.82-5.48,1.99c-0.28,0.2-0.54,0.4-0.8,0.61c-2.12,1.76-3.53,4.01-4.08,6.77c-0.73,3.65,0.02,6.92,2.3,9.66
		c0.31,0.37,0.64,0.73,1,1.08c2.71,2.62,5.98,3.7,9.75,3.07c1.51-0.25,2.92-0.78,4.18-1.65c1.09-0.75,1.99-1.71,2.75-2.79
		c1.15-1.63,1.99-3.42,2.62-5.31c0.59-1.75,1.11-3.52,1.65-5.28c1.23-4.03,2.45-8.07,3.69-12.1c0.68-2.22,1.34-4.44,2.22-6.59
		c0.8-1.98,1.78-3.85,3.05-5.57c1.21-1.64,2.64-3.04,4.39-4.1c2.41-1.46,5.01-2.25,7.84-2.29c2.21-0.03,4.31,0.31,6.27,1.07
		c1.38,0.53,2.69,1.26,3.93,2.2c2.15,1.63,3.75,3.7,4.85,6.16C82.3,32.78,82.74,34.88,82.73,37.08z"/>
	<circle class="st7" cx="53.91" cy="21.66" r="1.42"/>
	<circle class="st7" cx="45.43" cy="21.66" r="1.42"/>
	<g>
		
			<linearGradient id="SVGID_00000032616340608984244100000013429042592593375412_" gradientUnits="userSpaceOnUse" x1="49.8149" y1="22.2431" x2="49.3111" y2="5.7001">
			<stop  offset="0" style="stop-color:#AC4CBA"/>
			<stop  offset="0.4163" style="stop-color:#9445B6"/>
			<stop  offset="1" style="stop-color:#6C39B0"/>
		</linearGradient>
		<path style="fill:url(#SVGID_00000032616340608984244100000013429042592593375412_);" d="M53.91,22.22
			c-0.31,0-0.57-0.25-0.57-0.57v-8.5c0-2.03-1.65-3.67-3.67-3.67c-2.03,0-3.67,1.65-3.67,3.67v8.5c0,0.31-0.25,0.57-0.57,0.57
			c-0.31,0-0.57-0.25-0.57-0.57v-8.5c0-2.65,2.16-4.81,4.81-4.81c2.65,0,4.81,2.16,4.81,4.81v8.5
			C54.47,21.97,54.22,22.22,53.91,22.22z"/>
	</g>
</g>
</svg>
